<?xml version="1.0" encoding="UTF-8" standalone="no"?>
<!DOCTYPE svg PUBLIC "-//W3C//DTD SVG 1.1//EN" "http://www.w3.org/Graphics/SVG/1.1/DTD/svg11.dtd">
<svg width="100%" height="100%" viewBox="0 0 511 511" version="1.1" xmlns="http://www.w3.org/2000/svg" xmlns:xlink="http://www.w3.org/1999/xlink" xml:space="preserve" xmlns:serif="http://www.serif.com/" style="fill-rule:evenodd;clip-rule:evenodd;stroke-linecap:round;stroke-linejoin:round;stroke-miterlimit:1.5;">
    <path d="M373.691,504.951C364.818,504.951 354.416,504.518 344.564,501.31C334.182,497.918 325.972,491.766 321.441,483.98C317.118,476.577 316.451,467.134 319.742,459.929L320.779,457.657L322.767,459.169C336.903,469.914 354.1,476.234 371.188,476.97C372.26,477.013 373.375,477.037 374.595,477.037C390.638,477.037 407.18,472.113 421.176,463.177L423.063,461.972L424.046,463.98C426.533,469.064 426.603,475.317 424.245,481.594C422.096,487.306 418.12,492.514 413.328,495.883C402.092,503.781 387.438,504.9 374.584,504.951L373.691,504.951Z" style="fill:rgb(178,234,249);fill-rule:nonzero;"/>
    <path d="M199.629,266.573C188.65,266.573 178.26,264.912 170.428,263.47C155.001,260.627 135.769,255.626 123.898,242.05C113.165,229.789 110.03,212.698 108.237,196.047C105.239,168.183 104.997,139.895 107.516,111.969C109.422,90.846 113.442,67.014 128.806,50.429C135.859,42.811 145.543,36.83 156.806,33.131C166.985,29.782 178.319,28.012 189.578,28.012C197.734,28.012 205.675,28.92 213.184,30.713C227.289,34.074 246.549,42.144 258.213,61.505C270.416,81.766 272.712,106.401 273.352,125.594C274.206,151.068 272.416,176.698 268.03,201.77C265.184,218.074 260.623,236.429 248.381,248.951C239.648,257.891 226.681,263.879 211.87,265.813C208.015,266.316 203.898,266.573 199.629,266.573ZM172.097,187.86C167.067,187.86 161.243,188.015 155.722,189.871C148.459,192.312 143.176,197.442 141.59,203.598C139.859,210.304 142.705,218.058 148.833,223.345C154.549,228.265 161.925,230.433 167.711,231.774C176.549,233.84 185.722,234.889 194.985,234.889C203.344,234.889 211.679,234.027 219.757,232.327C225.009,231.216 231.746,229.431 237.235,225.431C243.948,220.546 247.418,212.195 246.073,204.148C244.911,197.119 240.303,191.871 233.422,189.746C226.787,187.696 218.962,186.741 208.798,186.741C202.982,186.741 197.009,187.045 191.235,187.337L190.939,187.353C185.57,187.622 180.502,187.875 175.734,187.875L174.615,187.867C173.789,187.863 172.946,187.86 172.097,187.86ZM229.746,119.407C224.853,119.407 220.1,121.244 215.999,124.721C208.537,131.037 204.288,141.719 205.422,151.306C207.056,165.189 219.508,176.483 233.18,176.483L233.449,176.483C243.169,176.39 252.436,170.772 257.04,162.168C260.845,155.053 261.215,147.053 258.089,139.641C254.276,130.596 245.633,123.166 235.531,120.242C233.609,119.688 231.664,119.407 229.746,119.407ZM149.04,119.407C144.151,119.407 139.399,121.244 135.293,124.721C127.835,131.037 123.586,141.719 124.72,151.306C126.354,165.189 138.806,176.483 152.479,176.483L152.748,176.483C162.467,176.39 171.734,170.772 176.338,162.168C180.139,155.053 180.514,147.053 177.387,139.641C173.574,130.596 164.927,123.166 154.83,120.242C152.907,119.688 150.962,119.407 149.04,119.407Z" style="fill:rgb(178,234,249);fill-rule:nonzero;"/>
    <path d="M189.188,454.846C189.188,454.729 189.169,454.608 189.145,454.479L189.001,453.621L189.535,452.931C209.056,427.59 231.406,404.464 255.964,384.187C256.436,383.793 256.712,383.193 256.697,382.581C256.685,381.953 256.389,381.372 255.902,381.006L235.863,365.875L258.775,356.783C259.987,356.304 262.007,355.501 262.935,353.54C264.202,350.869 262.518,348.058 261.796,346.857L238.35,307.969L241.227,305.321L307.746,353.337C314.346,358.101 321.161,363.021 325.898,369.629C329.843,375.119 333.063,383.742 330.264,391.485C330.089,391.976 330.159,392.444 330.248,392.744L331.032,395.353L280.061,394.627C278.802,394.608 277.504,394.592 276.171,394.592C269.434,394.592 261.664,395.068 255.075,398.608C247.137,402.885 241.391,413.2 245.488,421.738C250.475,432.117 265.449,432.195 271.087,432.222L299.531,432.378L300.1,433.384C304.42,441.013 309.964,447.945 316.58,453.996L317.749,455.064L316.974,456.444C312.124,465.083 312.502,476.694 317.937,486.019C319.82,489.255 322.276,492.257 325.235,494.939L329.067,498.409L280.611,498.444L283.278,447.918C283.305,447.376 283.122,446.857 282.759,446.456C282.401,446.058 281.905,445.82 281.367,445.793L281.364,445.793C280.186,445.793 279.286,446.635 279.227,447.711L276.545,498.444L188.896,498.483L189.188,454.846Z" style="fill:rgb(105,107,119);fill-rule:nonzero;"/>
    <path d="M52.124,498.565C44.362,498.565 36.962,498.214 31.785,494.015C24.966,488.471 24.218,478.058 24.05,468.736L23.071,413.485C22.927,405.848 22.763,397.185 26.506,390.109C29.886,383.723 36.245,379.115 41.855,375.048L128.81,312.058L131.609,314.83L106.939,349.622C105.586,351.532 103.948,354.382 105.309,357.13C106.479,359.481 109.141,360.167 110.572,360.534L132.802,366.128L109.438,383.29C107.874,384.429 104.978,386.542 104.767,389.863C104.557,393.271 107.286,395.738 108.752,397.064C132.104,418.05 157.243,437.321 183.484,454.362C183.613,454.448 183.792,454.522 183.87,454.549L185.134,455.056L184.841,498.491L90.358,498.534L88.611,410.432C88.592,409.317 87.715,408.448 86.619,408.448C85.434,408.471 84.541,409.403 84.561,410.518L86.307,498.538L52.256,498.561L52.124,498.561L52.124,498.565Z" style="fill:rgb(105,107,119);fill-rule:nonzero;"/>
    <path d="M148.833,324.44L148.67,323.333C147.64,316.456 146.767,309.598 146.073,302.951L149.761,301.707C151.738,304.959 154.167,307.684 156.982,309.805C165.578,316.269 177.422,316.76 186.073,317.119C188.241,317.208 190.814,317.298 193.488,317.298C203.29,317.298 215.613,316.245 223.952,308.031L228.272,303.918L227.387,309.696C226.861,313.146 226.268,316.744 225.574,320.698L225.266,322.444L223.496,322.343L223.348,322.339C223.005,322.339 222.705,322.409 222.44,322.549L199.699,334.374L198.666,333.399C196.533,331.392 193.976,329.953 191.262,329.236C189.944,328.893 188.623,328.717 187.34,328.717C183.562,328.717 180.206,330.195 177.629,332.99C177.251,333.399 176.888,333.855 176.51,334.386L175.582,335.684L148.833,324.44Z" style="fill:white;fill-rule:nonzero;"/>
    <path d="M233.18,172.429C221.695,172.429 210.826,162.542 209.453,150.838C209.348,149.934 209.297,149.08 209.297,148.218C209.297,140.616 212.958,132.604 218.619,127.813C221.972,124.963 225.824,123.458 229.757,123.458C231.293,123.458 232.857,123.684 234.401,124.136C243.356,126.733 251.001,133.279 254.354,141.212C256.217,145.649 257.578,152.55 253.457,160.257C249.625,167.45 241.562,172.343 233.391,172.429L233.18,172.429Z" style="fill:white;fill-rule:nonzero;"/>
    <path d="M183.403,442.545C174.853,423.314 167.543,403.259 161.672,382.943L161.364,381.887L180.65,360.179L181.995,360.795C183.371,361.423 184.865,361.863 186.432,362.101C187.422,362.253 188.405,362.331 189.348,362.331C190.95,362.331 192.51,362.093 193.98,361.633L196.572,360.818L196.572,362.659L196.58,362.666L196.58,362.768L211.566,378.935L211.227,380.039C204.627,401.356 196.486,422.401 187.036,442.584L185.18,446.542L183.403,442.545Z" style="fill:white;fill-rule:nonzero;"/>
    <path d="M152.479,172.429C140.989,172.429 130.124,162.542 128.748,150.838C127.785,142.663 131.559,133.197 137.925,127.809C140.26,125.828 144.089,123.458 149.056,123.458C150.588,123.458 152.151,123.684 153.703,124.132C162.662,126.737 170.303,133.279 173.648,141.216C175.516,145.649 176.872,152.55 172.752,160.257C168.923,167.45 160.857,172.343 152.689,172.429L152.479,172.429Z" style="fill:white;fill-rule:nonzero;"/>
    <path d="M198.744,359.126L199.956,357.774C201.792,355.727 203.075,353.123 203.672,350.249C204.467,346.378 204.175,342.721 202.802,339.376L202.108,337.688L224.635,325.98L223.831,330.05C221.122,343.84 217.785,357.633 213.913,371.048L212.931,374.444L198.744,359.126Z" style="fill:rgb(237,109,102);fill-rule:nonzero;"/>
    <path d="M189.297,358.273C188.572,358.273 187.808,358.214 187.028,358.093C182.588,357.427 179.336,354.768 177.882,350.612C176.128,345.61 177.278,339.353 180.615,335.735C182.405,333.793 184.713,332.768 187.29,332.768C188.229,332.768 189.219,332.896 190.225,333.158C198.139,335.232 201.009,343.087 199.695,349.431C198.833,353.7 195.648,358.273 189.297,358.273Z" style="fill:rgb(237,109,102);fill-rule:nonzero;"/>
    <path d="M159.102,373.672C155.555,360.362 152.549,346.588 150.171,332.737L149.559,329.146L173.941,339.395L173.555,341.037C172.701,344.713 172.876,348.592 174.054,351.961C174.631,353.583 175.434,355.072 176.44,356.386L177.445,357.692L160.061,377.259L159.102,373.672Z" style="fill:rgb(237,109,102);fill-rule:nonzero;"/>
    <path d="M271.106,428.171C263.348,428.128 252.627,427.232 249.149,419.98C246.05,413.536 250.705,405.571 256.997,402.179C262.775,399.076 269.597,398.647 276.108,398.647C277.001,398.647 277.894,398.655 278.775,398.666L279.995,398.678L454.186,401.165C455.243,401.185 456.338,401.185 457.492,401.185C467.788,401.216 481.827,401.259 486.974,410.46C489.933,415.75 488.997,419.508 487.687,421.731C485.063,426.179 478.264,429.29 471.153,429.29L271.106,428.171Z" style="fill:rgb(191,199,216);fill-rule:nonzero;"/>
    <g>
        <path d="M405.34,432.97L445.094,433.204L443.059,436.28C434.759,448.822 422.868,458.896 408.673,465.407L405.894,466.682L405.34,432.97Z" style="fill:rgb(40,143,201);fill-rule:nonzero;"/>
        <path d="M373.395,472.963L371.57,472.935L368.615,432.772L401.278,432.951L401.866,468.191L400.486,468.659C392.022,471.52 383.313,472.974 374.599,472.974C374.202,472.97 373.796,472.97 373.395,472.963Z" style="fill:rgb(40,143,201);fill-rule:nonzero;"/>
        <path d="M365.067,472.378C358.264,471.528 351.527,469.781 345.04,467.181L343.504,466.569L343.824,464.947C343.874,464.682 343.89,464.46 343.866,464.276L340.046,432.612L364.545,432.744L367.484,472.682L365.067,472.378Z" style="fill:rgb(40,143,201);fill-rule:nonzero;"/>
        <path d="M336.482,463.197C324.093,456.553 313.597,446.982 306.135,435.516L304.112,432.413L335.956,432.581L339.87,465.009L336.482,463.197Z" style="fill:rgb(40,143,201);fill-rule:nonzero;"/>
        <path d="M274.089,189.263C276.596,171.088 277.773,152.553 277.594,134.183L277.574,131.727L279.983,132.207C289.543,134.109 297.878,140.807 301.734,149.688C305.749,158.943 304.646,170.304 298.923,178.631C293.898,185.93 285.196,190.873 276.213,191.528L273.753,191.704L274.089,189.263Z" style="fill:rgb(40,143,201);fill-rule:nonzero;"/>
        <path d="M208.958,190.791L211.114,190.826C219.761,190.955 226.467,191.84 232.221,193.618C239.555,195.891 241.543,201.606 242.077,204.807C243.145,211.255 240.241,218.226 234.845,222.152C229.956,225.715 223.761,227.341 218.911,228.358C217.239,228.713 215.438,229.045 213.566,229.345L211.395,229.688L208.958,190.791Z" style="fill:rgb(40,143,201);fill-rule:nonzero;"/>
        <path d="M193.757,313.247C191.594,313.247 189.274,313.193 186.241,313.064C175.714,312.631 166.432,311.844 159.422,306.565C151.679,300.725 149.317,291.208 148.596,286.054C147.566,278.772 148.284,271.263 149.04,264.799L149.317,262.409L151.617,263.123C156.95,264.783 162.861,266.203 169.687,267.458C177.672,268.932 188.288,270.627 199.605,270.627C204.073,270.627 208.377,270.358 212.401,269.824C216.845,269.251 221.278,268.28 225.57,266.943L227.839,266.242L228.143,268.592C228.865,274.14 229.578,280.577 228.958,286.803C228.217,294.37 225.434,300.885 221.118,305.142C213.816,312.327 202.658,313.247 193.757,313.247Z" style="fill:rgb(40,143,201);fill-rule:nonzero;"/>
        <path d="M211.063,26.117C204.139,24.702 196.9,23.988 189.547,23.988C183.18,23.988 176.787,24.526 170.549,25.591L168.303,25.973L168.217,23.696C168.1,20.425 169.445,16.971 171.909,14.214C174.436,11.403 178.093,9.216 182.787,7.708C186.155,6.624 189.539,6.074 192.837,6.074C196.841,6.074 200.615,6.916 203.742,8.507C209.909,11.653 213.902,18.148 213.453,24.304L213.29,26.569L211.063,26.117Z" style="fill:rgb(40,143,201);fill-rule:nonzero;"/>
        <path d="M195.005,230.834C187.843,230.834 180.677,230.175 173.703,228.877L172.1,228.581L171.391,191.922L173.426,191.922C173.863,191.922 174.295,191.922 174.732,191.934L175.484,191.934C180.576,191.934 185.855,191.668 191.442,191.388L192.416,191.337C195.878,191.166 199.453,190.986 202.974,190.885L204.904,190.83L207.36,230.195L205.426,230.37C201.98,230.678 198.475,230.834 195.005,230.834Z" style="fill:rgb(40,143,201);fill-rule:nonzero;"/>
        <path d="M165.453,227.021C159.297,225.329 154.861,223.185 151.484,220.273C147.41,216.772 143.98,210.565 145.516,204.608C146.97,198.932 152.408,195.259 157.013,193.711C159.395,192.916 162.077,192.405 165.219,192.148L167.336,191.973L168.03,227.731L165.453,227.021Z" style="fill:rgb(40,143,201);fill-rule:nonzero;"/>
        <path d="M99.329,194.604C96.077,194.604 92.81,193.774 89.886,192.206C85.414,189.789 81.609,185.665 79.161,180.585C74.853,171.696 75.149,160.799 79.929,152.152C84.003,144.772 91.099,139.302 99.391,137.154L101.952,136.491L101.886,139.138C101.43,156.85 102.065,174.713 103.773,192.23L103.96,194.109L102.089,194.398C101.192,194.534 100.26,194.604 99.329,194.604Z" style="fill:rgb(40,143,201);fill-rule:nonzero;"/>
    </g>
    <path d="M196.268,431.945C213.098,393.286 224.884,352.581 231.297,310.955L232.135,305.512L258.315,348.943C258.607,349.423 258.798,349.793 258.927,350.066L259.812,351.93L257.921,352.752C257.742,352.83 257.562,352.904 257.426,352.959L231.013,363.434C230.338,363.707 229.851,364.331 229.75,365.06C229.656,365.774 229.96,366.503 230.545,366.947L251.399,382.69L249.492,384.304C231.558,399.485 214.779,416.218 199.621,434.035L196.268,431.945Z" style="fill:rgb(147,155,170);fill-rule:nonzero;"/>
    <path d="M175.742,444.354C153.247,429.091 131.629,412.171 111.481,394.066C109.293,392.101 108.915,391.189 108.83,390.495L108.787,390.144L108.869,389.793C109.056,388.998 109.617,388.179 111.835,386.549L138.674,366.857C139.309,366.39 139.613,365.61 139.461,364.826C139.313,364.066 138.728,363.446 137.972,363.255L111.59,356.608C111.079,356.483 110.693,356.362 110.424,356.269L108.303,355.532L109.282,353.516C109.485,353.103 109.785,352.612 110.233,351.972L142.362,306.674L142.993,311.781C145.859,334.99 150.506,358.156 156.806,380.635L156.911,381.013L156.865,381.403C156.806,381.933 156.958,382.468 157.297,382.9L157.535,383.204L157.64,383.575C163.348,403.427 170.432,423.052 178.689,441.902L181.465,448.237L175.742,444.354Z" style="fill:rgb(147,155,170);fill-rule:nonzero;"/>
    <path d="M492.256,407.505C485.371,395.204 468.603,395.161 457.508,395.134C456.381,395.13 455.297,395.13 454.272,395.115L402.845,394.382C402.607,393.91 344.49,393.037 344.49,393.037C344.287,393.189 335.987,393.427 335.987,393.427C338.985,385.002 337.055,374.795 330.81,366.093C325.492,358.682 317.948,353.236 311.289,348.432L234.135,292.741C234.557,290.842 234.822,289.029 234.981,287.395C235.703,280.082 234.829,272.908 233.902,265.949C241.184,262.733 247.586,258.421 252.709,253.181C266.112,239.47 270.989,220.027 273.995,202.811C274.295,201.091 274.584,199.364 274.861,197.641C286.233,197.384 297.445,191.438 303.902,182.062C310.783,172.066 312.108,158.413 307.282,147.283C302.451,136.148 291.578,127.785 279.578,125.98C279.523,125.973 279.473,125.977 279.422,125.973C279.414,125.778 279.41,125.587 279.406,125.392C278.74,105.466 276.319,79.844 263.399,58.39C253.387,41.762 237.317,31.361 219.344,26.121C219.348,26.113 219.348,26.109 219.348,26.105C220.662,17.099 215.375,7.649 206.494,3.123C199.208,-0.593 190.128,-1.006 180.931,1.953C175.212,3.789 170.666,6.557 167.418,10.172C163.527,14.503 161.648,20.07 162.272,25.275C159.769,25.895 157.309,26.596 154.911,27.384C142.677,31.403 132.112,37.953 124.366,46.32C107.769,64.238 103.488,89.286 101.488,111.423C100.911,117.86 100.479,124.316 100.19,130.78C89.524,132.823 79.898,139.7 74.635,149.228C68.923,159.563 68.568,172.589 73.711,183.22C76.724,189.454 81.449,194.534 87.017,197.528C90.865,199.598 95.18,200.659 99.391,200.659C100.49,200.659 101.578,200.569 102.65,200.425C104.642,216.861 108.342,233.458 119.344,246.039C125.925,253.567 134.381,258.666 143.251,262.269C142.28,270.284 141.418,278.542 142.6,286.908C142.927,289.22 143.418,291.434 144.042,293.555L141.933,295.084C141.43,295.314 140.985,295.633 140.623,296.035L38.307,370.148C32.163,374.6 25.196,379.645 21.161,387.278C16.701,395.723 16.876,405.633 17.017,413.594L18.007,468.846C18.198,479.532 19.142,491.54 27.972,498.705C34.666,504.14 43.212,504.608 52.128,504.608L52.26,504.608L333.601,504.464C334.213,504.464 334.79,504.315 335.309,504.066C337.644,505.208 340.104,506.218 342.689,507.06C353.141,510.467 364.069,511.002 373.519,511.002C373.882,511.002 374.245,510.998 374.607,510.998C388.404,510.939 404.209,509.688 416.81,500.826C429.091,492.187 436.615,474.046 428.888,460.191C436.4,454.382 442.993,447.391 448.225,439.427C449.09,438.113 449.067,436.487 448.33,435.208L470.974,435.337L471.129,435.337C478.896,435.337 488.595,432.089 492.899,424.803C495.016,421.216 496.623,415.306 492.256,407.505ZM229.34,368.538L248.206,382.779C230.186,398.023 213.403,414.76 198.097,432.737C215.009,393.906 226.81,353.181 233.27,311.263L256.607,349.976C256.853,350.386 257.017,350.69 257.13,350.92C256.9,351.021 256.666,351.115 256.545,351.162L230.28,361.586C228.927,362.124 227.972,363.345 227.777,364.787C227.582,366.226 228.178,367.661 229.34,368.538ZM141.422,364.448C141.122,362.92 139.968,361.7 138.455,361.321L112.081,354.67C111.64,354.561 111.313,354.464 111.075,354.386C111.227,354.097 111.469,353.688 111.87,353.119L141.017,312.027C143.906,335.466 148.545,358.557 154.888,381.177C154.767,382.21 155.052,383.275 155.726,384.124C161.453,404.05 168.502,423.606 176.868,442.705C154.444,427.489 132.939,410.666 112.818,392.581C111.071,391.009 110.833,390.413 110.81,390.257C110.861,390.043 111.212,389.489 113.017,388.163L139.855,368.464C141.11,367.544 141.718,365.98 141.422,364.448ZM197.746,349.029C197.34,351.002 195.391,357.349 187.332,356.124C182.619,355.411 180.619,352.374 179.765,349.957C178.264,345.684 179.258,340.152 182.081,337.091C183.512,335.54 185.258,334.76 187.293,334.76C188.065,334.76 188.876,334.873 189.726,335.095C196.44,336.854 198.868,343.586 197.746,349.029ZM172.175,352.624C172.826,354.475 173.734,356.136 174.853,357.598L161.028,373.162C157.449,359.727 154.49,346.132 152.139,332.397L171.609,340.581C170.697,344.526 170.829,348.795 172.175,352.624ZM181.161,362.612C182.689,363.31 184.35,363.813 186.128,364.082C187.247,364.249 188.319,364.331 189.344,364.331C191.251,364.331 192.989,364.039 194.576,363.54C194.58,363.544 194.584,363.547 194.588,363.555L209.317,379.442C202.74,400.69 194.705,421.489 185.219,441.731C176.631,422.401 169.422,402.592 163.59,382.39L181.161,362.612ZM211.995,370.495L201.442,359.111C203.582,356.721 204.989,353.742 205.625,350.655C206.557,346.14 206.065,342.07 204.642,338.62L221.87,329.664C219.165,343.431 215.874,357.048 211.995,370.495ZM223.605,320.351C222.904,320.308 222.182,320.433 221.516,320.779L200.034,331.945C197.644,329.688 194.755,328.093 191.769,327.31C185.828,325.75 180.136,327.329 176.167,331.637C175.707,332.136 175.286,332.674 174.884,333.228L150.638,323.037C149.629,316.304 148.771,309.536 148.054,302.744C150.147,306.183 152.748,309.111 155.785,311.399C164.857,318.23 177.071,318.74 185.991,319.115C188.444,319.22 190.958,319.294 193.488,319.294C205.083,319.294 217.013,317.672 225.36,309.458C225.379,309.438 225.399,309.415 225.418,309.395C224.857,313.056 224.249,316.705 223.605,320.351ZM299.902,150.483C303.652,159.13 302.619,169.735 297.274,177.497C292.514,184.409 284.436,188.932 276.065,189.536C278.592,171.205 279.773,152.659 279.59,134.16C288.424,135.922 296.311,142.21 299.902,150.483ZM173.403,15.548C175.687,13.006 179.048,11.01 183.395,9.61C190.451,7.341 197.539,7.591 202.841,10.292C208.334,13.092 211.847,18.823 211.461,24.164C197.863,21.384 183.566,21.345 170.214,23.626C170.116,20.912 171.274,17.918 173.403,15.548ZM90.83,190.44C86.744,188.242 83.239,184.433 80.954,179.715C76.931,171.396 77.208,161.205 81.679,153.115C85.5,146.195 92.268,141.064 99.894,139.088C99.43,156.881 100.065,174.725 101.793,192.417C98.206,192.967 94.276,192.292 90.83,190.44ZM125.403,240.741C115.036,228.885 111.98,212.148 110.221,195.832C107.239,168.09 106.997,139.934 109.504,112.144C111.383,91.357 115.317,67.93 130.268,51.786C137.091,44.417 146.483,38.624 157.426,35.029C167.562,31.696 178.619,30.012 189.578,30.012C197.473,30.012 205.313,30.885 212.728,32.651C226.459,35.926 245.204,43.77 256.506,62.538C268.471,82.409 270.732,106.709 271.364,125.661C272.206,150.978 270.428,176.472 266.069,201.427C263.278,217.427 258.822,235.419 246.958,247.555C238.533,256.171 225.983,261.953 211.617,263.828C196.958,265.746 182.1,263.594 170.791,261.509C155.676,258.721 136.857,253.84 125.403,240.741ZM169.329,269.423C177.913,271.006 188.467,272.62 199.609,272.62C203.898,272.62 208.276,272.382 212.658,271.809C217.348,271.197 221.866,270.191 226.167,268.85C226.935,274.768 227.547,280.799 226.974,286.604C226.272,293.727 223.695,299.805 219.714,303.723C211.847,311.47 198.904,311.598 186.327,311.076C176.136,310.647 167.165,309.894 160.623,304.967C153.477,299.587 151.254,290.635 150.568,285.781C149.613,279.01 150.217,271.957 151.024,265.033C157.301,266.99 163.566,268.358 169.329,269.423ZM52.256,496.561L52.124,496.561C44.717,496.561 37.691,496.234 33.044,492.46C26.896,487.469 26.21,477.579 26.05,468.701L25.064,413.454C24.931,406.046 24.779,397.649 28.276,391.041C31.434,385.064 37.594,380.6 43.028,376.662L129.98,313.676L105.305,348.464C104.358,349.801 101.469,353.871 103.527,358.019C105.106,361.212 108.486,362.066 110.112,362.475L128.202,367.033L108.253,381.676C106.561,382.916 103.044,385.501 102.779,389.738C102.502,394.124 105.835,397.123 107.434,398.565C130.818,419.583 156.038,438.92 182.401,456.043C182.631,456.195 182.876,456.308 183.122,456.405L182.857,496.495L92.315,496.542L90.611,410.401C90.568,408.179 88.748,406.393 86.506,406.46C84.288,406.503 82.522,408.339 82.564,410.561L84.268,496.545L52.256,496.561ZM282.709,496.444L285.27,448.027C285.387,445.809 283.683,443.914 281.465,443.797C279.247,443.703 277.352,445.384 277.235,447.602L274.65,496.448L190.904,496.491L191.18,454.861C191.18,454.62 191.153,454.382 191.114,454.152C210.506,428.974 232.732,405.953 257.235,385.719C258.182,384.935 258.72,383.762 258.693,382.53C258.666,381.298 258.077,380.148 257.095,379.407L239.898,366.425L259.512,358.639C260.9,358.089 263.477,357.068 264.74,354.397C266.467,350.748 264.311,347.169 263.496,345.82L240.061,306.939L306.58,354.959C313.04,359.622 319.718,364.444 324.276,370.791C327.921,375.871 330.915,383.797 328.389,390.803C328.081,391.649 328.089,392.522 328.33,393.321L280.089,392.635C272.229,392.522 262.443,392.382 254.132,396.857C245.383,401.567 239.098,413.037 243.691,422.604C249.212,434.097 265.095,434.187 271.075,434.222L298.365,434.374C302.829,442.261 308.564,449.368 315.231,455.473C310.069,464.659 310.369,477.009 316.21,487.033C318.213,490.467 320.806,493.621 323.898,496.425L282.709,496.444ZM399.321,434.935L399.843,466.768C391.352,469.633 382.4,471.111 373.422,470.967L370.759,434.775L399.321,434.935ZM362.685,434.733L365.313,470.393C358.611,469.559 352.046,467.836 345.781,465.333C345.866,464.92 345.905,464.491 345.851,464.046L342.299,434.62L362.685,434.733ZM334.186,434.573L337.43,461.438C325.527,455.056 315.184,445.754 307.808,434.425L334.186,434.573ZM412.182,494.245C401.402,501.828 387.122,502.9 374.572,502.951C365.554,502.99 354.958,502.596 345.18,499.407C335.278,496.179 327.457,490.343 323.165,482.978C319.094,475.996 318.564,467.313 321.558,460.756C335.781,471.563 353.196,478.195 371.098,478.959C372.268,479.009 373.434,479.033 374.599,479.033C391.426,479.033 408.092,473.898 422.252,464.857C427.071,474.713 421.118,487.961 412.182,494.245ZM407.839,463.59L407.367,434.982L441.391,435.173C433.184,447.598 421.336,457.403 407.839,463.59ZM485.968,420.713C483.699,424.561 477.383,427.337 471.02,427.29L271.122,426.171C263.894,426.132 253.941,425.356 250.946,419.119C248.381,413.777 252.576,406.834 257.944,403.941C263.293,401.06 269.866,400.643 276.104,400.643C277.414,400.643 278.709,400.662 279.976,400.678L454.159,403.161C455.211,403.177 456.326,403.177 457.488,403.181C467.262,403.208 480.646,403.239 485.235,411.434C487.239,415.021 487.488,418.14 485.968,420.713Z" style="fill:rgb(35,31,32);fill-rule:nonzero;"/>
    <path d="M152.744,178.479C163.212,178.374 173.161,172.343 178.097,163.111C182.186,155.45 182.588,146.842 179.223,138.861C175.184,129.283 166.046,121.411 155.383,118.323C147.867,116.148 140.28,117.879 134.007,123.193C126.062,129.93 121.531,141.322 122.736,151.544C124.494,166.456 137.804,178.483 152.479,178.483C152.568,178.479 152.658,178.479 152.744,178.479ZM130.728,150.6C129.839,143.064 133.329,134.316 139.212,129.333C142.143,126.846 146.939,124.253 153.145,126.051C161.535,128.483 168.685,134.589 171.808,141.988C173.508,146.019 174.748,152.3 170.997,159.318C167.484,165.891 160.12,170.359 152.666,170.433L152.483,170.433C141.937,170.433 131.999,161.392 130.728,150.6Z" style="fill:rgb(35,31,32);fill-rule:nonzero;"/>
    <path d="M233.18,178.479L233.449,178.479C243.913,178.374 253.866,172.343 258.798,163.111C262.888,155.45 263.289,146.842 259.925,138.861C255.886,129.283 246.751,121.411 236.085,118.323C228.572,116.148 220.982,117.879 214.709,123.193C206.763,129.926 202.233,141.322 203.438,151.544C205.196,166.452 218.502,178.483 233.18,178.479ZM219.913,129.333C222.167,127.423 225.516,125.454 229.757,125.454C231.04,125.454 232.405,125.633 233.843,126.051C242.237,128.483 249.391,134.589 252.51,141.988C254.21,146.019 255.449,152.3 251.699,159.318C248.186,165.891 240.822,170.359 233.367,170.433L233.184,170.433C222.638,170.433 212.701,161.392 211.43,150.6C210.541,143.064 214.03,134.316 219.913,129.333Z" style="fill:rgb(35,31,32);fill-rule:nonzero;"/>
    <path d="M220.163,234.281C225.605,233.134 232.599,231.275 238.412,227.045C245.722,221.719 249.508,212.604 248.046,203.817C246.751,196.023 241.636,190.199 234.011,187.84C221.032,183.828 205.835,184.6 191.134,185.345C185.325,185.641 179.824,185.914 174.748,185.879C168.599,185.832 161.644,185.778 155.091,187.98C147.176,190.635 141.41,196.288 139.656,203.103C137.742,210.542 140.833,219.08 147.531,224.858C153.543,230.043 161.235,232.32 167.262,233.723C176.315,235.832 185.648,236.889 194.985,236.889C203.449,236.889 211.913,236.019 220.163,234.281ZM240.108,205.134C241.059,210.854 238.471,217.045 233.672,220.538C229.098,223.871 223.161,225.427 218.502,226.405C216.759,226.776 215.009,227.091 213.251,227.376L211.087,192.819C218.408,192.932 225.43,193.61 231.629,195.528C237.944,197.481 239.652,202.386 240.108,205.134ZM147.449,205.107C148.709,200.206 153.547,196.986 157.652,195.61C160.108,194.783 162.716,194.359 165.383,194.14L165.983,225.099C161.516,223.871 156.568,222.023 152.787,218.76C149.18,215.653 146.132,210.226 147.449,205.107ZM174.069,226.92L173.426,193.918C173.843,193.922 174.268,193.922 174.685,193.926C180.015,193.965 185.609,193.68 191.543,193.38C195.36,193.189 199.208,192.994 203.028,192.885L205.251,228.378C194.857,229.306 184.311,228.819 174.069,226.92Z" style="fill:rgb(35,31,32);fill-rule:nonzero;"/>
    <g transform="matrix(0.323663,0,0,0.323663,286.872,249.231)">
        <path d="M486.4,256C486.4,383.296 383.239,486.4 256,486.4C184.749,486.4 121.043,454.086 78.822,403.283C45.587,363.366 25.6,312.045 25.6,256C25.6,128.761 128.761,25.6 256,25.6C311.066,25.6 361.639,44.954 401.267,77.267C453.222,119.43 486.4,183.827 486.4,256Z" style="fill:rgb(244,217,91);fill-rule:nonzero;"/>
    </g>
    <g transform="matrix(1,0,0,1,-5.625,34.7656)">
        <path d="M330.691,237.667C344.188,227.509 365.188,221.1 383.318,222.902C411.042,225.657 429.18,243.344 439.879,259.146C450.578,274.948 450.95,301.13 447.512,317.714C444.146,333.95 432.382,348.525 419.25,358.648C402.404,371.634 378.458,372.838 361.328,369.745C344.409,366.691 329.487,358.24 316.271,341.247C301.949,322.831 299.933,301.114 302.336,283.851C304.739,266.587 317.194,247.825 330.691,237.667Z" style="fill:none;stroke:rgb(35,31,32);stroke-width:8px;"/>
    </g>
    <g transform="matrix(0.319455,-0.051786,0.051786,0.319455,274.668,263.574)">
        <circle cx="256.02" cy="256.031" r="177.009" style="fill:rgb(239,178,80);"/>
    </g>
    <g transform="matrix(0.810838,0,0,0.810838,64.898,90.6293)">
        <path d="M377.716,222.602L378.152,222.608L378.587,222.616L379.021,222.627L379.455,222.642L379.888,222.659L380.32,222.679L380.751,222.702L381.181,222.728L381.611,222.757L382.039,222.788L382.466,222.823L382.893,222.861L383.318,222.902L383.643,222.935L383.966,222.969L384.289,223.005L384.611,223.042L384.932,223.08L385.252,223.12L385.571,223.161L385.889,223.203L386.207,223.247L386.523,223.292L386.839,223.338L387.154,223.386L387.468,223.435L387.781,223.485L388.093,223.536L388.405,223.589L388.715,223.643L389.025,223.698L389.334,223.755L389.642,223.813L389.949,223.872L390.255,223.932L390.56,223.994L390.865,224.056L391.168,224.12L391.471,224.186L391.773,224.252L392.074,224.32L392.374,224.388L392.673,224.458L392.972,224.53L393.269,224.602L393.566,224.675L393.862,224.75L394.157,224.826L394.451,224.903L394.745,224.981L395.037,225.061L395.329,225.141L395.62,225.223L395.91,225.305L396.199,225.389L396.487,225.474L396.775,225.56L397.061,225.647L397.347,225.736L397.632,225.825L397.916,225.915L398.199,226.007L398.482,226.1L398.763,226.193L399.044,226.288L399.324,226.384L399.603,226.481L399.881,226.578L400.158,226.677L400.435,226.777L400.71,226.878L400.985,226.98L401.259,227.083L401.533,227.187L401.805,227.292L402.076,227.398L402.347,227.505L402.617,227.613L402.886,227.722L403.154,227.832L403.422,227.943L403.688,228.054L403.954,228.167L404.219,228.281L404.483,228.396L404.746,228.511L405.009,228.628L405.27,228.745L405.531,228.864L405.791,228.983L406.05,229.103L406.309,229.224L406.566,229.346L406.823,229.469L407.079,229.593L407.334,229.717L407.588,229.843L407.842,229.969L408.094,230.096L408.346,230.224L408.597,230.353L408.848,230.483L409.097,230.613L409.346,230.745L409.593,230.877L409.84,231.01L410.087,231.144L410.332,231.278L410.577,231.414L410.82,231.55L411.063,231.687L411.305,231.825L411.547,231.963L411.787,232.103L412.027,232.243L412.266,232.383L412.504,232.525L412.742,232.667L412.978,232.81L413.214,232.954L413.449,233.099L413.683,233.244L413.917,233.39L414.149,233.536L414.381,233.684L414.612,233.832L414.842,233.98L415.072,234.13L415.3,234.28L415.528,234.431L415.755,234.582L415.982,234.734L416.207,234.887L416.432,235.04L416.656,235.194L416.879,235.349L417.101,235.504L417.323,235.66L417.544,235.816L417.764,235.973L417.983,236.131L418.201,236.289L418.419,236.448L418.636,236.608L418.852,236.768L419.282,237.09L419.709,237.414L420.132,237.74L420.553,238.068L420.971,238.399L421.385,238.732L421.796,239.066L422.205,239.403L422.61,239.741L423.012,240.081L423.412,240.423L423.808,240.767L424.201,241.113L424.591,241.46L424.978,241.809L425.362,242.159L425.743,242.511L426.121,242.865L426.496,243.22L426.868,243.576L427.238,243.933L427.604,244.292L427.967,244.652L428.327,245.014L428.684,245.376L429.039,245.74L429.39,246.104L429.738,246.47L430.084,246.836L430.426,247.204L430.766,247.572L431.103,247.941L431.436,248.311L431.767,248.681L432.095,249.052L432.42,249.424L432.743,249.796L433.062,250.169L433.378,250.542L433.692,250.916L434.003,251.29L434.311,251.665L434.616,252.039L434.918,252.414L435.217,252.789L435.514,253.164L435.808,253.54L436.099,253.915L436.387,254.29L436.672,254.666L436.954,255.041L437.234,255.416L437.511,255.79L437.785,256.165L438.057,256.539L438.325,256.913L438.591,257.286L438.854,257.659L439.114,258.032L439.372,258.404L439.627,258.775L439.879,259.146L440.004,259.331L440.128,259.518L440.251,259.705L440.373,259.894L440.494,260.083L440.614,260.274L440.734,260.465L440.852,260.657L440.969,260.85L441.086,261.044L441.201,261.239L441.316,261.434L441.43,261.631L441.543,261.828L441.655,262.026L441.766,262.225L441.876,262.425L441.985,262.626L442.093,262.828L442.2,263.03L442.307,263.233L442.413,263.437L442.517,263.642L442.621,263.847L442.724,264.054L442.826,264.261L442.927,264.469L443.027,264.677L443.127,264.887L443.225,265.097L443.323,265.307L443.42,265.519L443.516,265.731L443.611,265.944L443.705,266.158L443.798,266.372L443.89,266.588L443.982,266.803L444.073,267.02L444.163,267.237L444.252,267.455L444.34,267.673L444.427,267.892L444.513,268.112L444.599,268.333L444.684,268.554L444.768,268.775L444.851,268.997L444.933,269.22L445.015,269.444L445.095,269.668L445.175,269.893L445.254,270.118L445.332,270.344L445.409,270.57L445.486,270.797L445.561,271.024L445.636,271.252L445.71,271.481L445.784,271.71L445.928,272.17L446.069,272.631L446.206,273.095L446.341,273.561L446.472,274.028L446.6,274.498L446.726,274.969L446.848,275.441L446.967,275.916L447.083,276.392L447.195,276.869L447.305,277.348L447.412,277.828L447.516,278.31L447.617,278.793L447.715,279.277L447.81,279.762L447.902,280.249L447.991,280.736L448.078,281.225L448.161,281.714L448.242,282.205L448.32,282.696L448.395,283.188L448.467,283.68L448.537,284.174L448.604,284.667L448.668,285.162L448.729,285.657L448.788,286.152L448.844,286.648L448.898,287.144L448.949,287.64L448.997,288.137L449.042,288.633L449.085,289.13L449.126,289.627L449.164,290.124L449.199,290.62L449.232,291.117L449.263,291.613L449.291,292.109L449.316,292.605L449.339,293.1L449.36,293.595L449.379,294.09L449.395,294.584L449.408,295.077L449.42,295.57L449.429,296.061L449.435,296.553L449.44,297.043L449.442,297.532L449.442,298.021L449.44,298.508L449.435,298.995L449.429,299.48L449.42,299.964L449.409,300.447L449.396,300.929L449.381,301.409L449.363,301.888L449.344,302.366L449.323,302.842L449.299,303.316L449.274,303.789L449.247,304.26L449.217,304.729L449.186,305.197L449.153,305.662L449.118,306.126L449.081,306.588L449.042,307.047L449.001,307.505L448.958,307.961L448.914,308.414L448.867,308.865L448.819,309.314L448.77,309.76L448.718,310.204L448.665,310.645L448.61,311.084L448.553,311.521L448.495,311.954L448.435,312.385L448.373,312.813L448.31,313.239L448.245,313.661L448.178,314.081L448.11,314.497L448.041,314.91L447.969,315.321L447.897,315.728L447.823,316.132L447.747,316.532L447.67,316.93L447.592,317.324L447.512,317.714L447.431,318.094L447.348,318.474L447.261,318.853L447.172,319.231L447.079,319.609L446.984,319.986L446.885,320.362L446.784,320.738L446.68,321.113L446.572,321.488L446.462,321.861L446.349,322.234L446.234,322.607L446.115,322.978L445.994,323.349L445.87,323.719L445.743,324.088L445.613,324.457L445.481,324.825L445.346,325.192L445.208,325.559L445.068,325.924L444.925,326.289L444.779,326.653L444.631,327.016L444.48,327.379L444.327,327.74L444.171,328.101L444.012,328.461L443.852,328.82L443.688,329.178L443.522,329.536L443.354,329.892L443.184,330.248L443.011,330.603L442.835,330.957L442.657,331.31L442.477,331.662L442.295,332.013L442.11,332.363L441.923,332.713L441.734,333.061L441.543,333.408L441.349,333.755L441.153,334.1L440.955,334.445L440.755,334.789L440.553,335.131L440.348,335.473L440.142,335.814L439.933,336.153L439.723,336.492L439.51,336.829L439.296,337.166L439.079,337.501L438.86,337.836L438.64,338.169L438.417,338.502L438.193,338.833L437.967,339.163L437.739,339.492L437.509,339.82L437.277,340.147L437.043,340.473L436.808,340.798L436.57,341.121L436.332,341.444L436.091,341.765L435.849,342.085L435.604,342.404L435.359,342.722L435.111,343.039L434.862,343.354L434.612,343.668L434.36,343.981L434.106,344.293L433.851,344.604L433.594,344.913L433.335,345.221L433.076,345.528L432.814,345.834L432.551,346.138L432.287,346.442L432.022,346.743L431.755,347.044L431.486,347.343L431.217,347.641L430.946,347.938L430.674,348.234L430.4,348.528L430.125,348.821L429.849,349.112L429.572,349.402L429.293,349.691L429.013,349.978L428.733,350.264L428.451,350.549L428.167,350.832L427.883,351.114L427.598,351.395L427.311,351.674L427.024,351.951L426.736,352.228L426.446,352.502L426.156,352.776L425.864,353.048L425.572,353.318L425.279,353.587L424.984,353.855L424.689,354.121L424.393,354.385L424.097,354.648L423.799,354.91L423.501,355.17L423.201,355.428L422.901,355.685L422.601,355.941L422.299,356.195L421.997,356.447L421.694,356.698L421.391,356.947L421.087,357.195L420.782,357.441L420.477,357.686L420.171,357.929L419.865,358.17L419.558,358.41L419.25,358.648L419.052,358.799L418.854,358.95L418.655,359.099L418.455,359.248L418.255,359.395L418.054,359.541L417.852,359.687L417.65,359.831L417.448,359.974L417.244,360.116L417.04,360.257L416.836,360.397L416.63,360.536L416.425,360.674L416.218,360.811L416.012,360.946L415.804,361.081L415.596,361.215L415.387,361.347L415.178,361.479L414.969,361.61L414.758,361.739L414.548,361.868L414.336,361.996L414.124,362.122L413.912,362.248L413.699,362.372L413.486,362.496L413.272,362.618L413.057,362.74L412.842,362.86L412.627,362.98L412.411,363.098L412.195,363.216L411.978,363.332L411.76,363.448L411.543,363.563L411.324,363.676L411.106,363.789L410.886,363.901L410.667,364.011L410.447,364.121L410.226,364.23L410.005,364.338L409.784,364.444L409.562,364.55L409.34,364.655L409.117,364.759L408.894,364.862L408.67,364.964L408.446,365.065L408.222,365.165L407.997,365.265L407.772,365.363L407.547,365.46L407.321,365.557L407.095,365.652L406.868,365.747L406.641,365.841L406.414,365.933L406.186,366.025L405.958,366.116L405.73,366.206L405.501,366.295L405.272,366.383L405.043,366.471L404.814,366.557L404.584,366.642L404.353,366.727L404.123,366.811L403.892,366.893L403.661,366.975L403.429,367.056L403.197,367.136L402.733,367.294L402.268,367.448L401.801,367.599L401.334,367.746L400.865,367.89L400.396,368.03L399.926,368.167L399.455,368.301L398.983,368.431L398.51,368.558L398.037,368.681L397.562,368.802L397.088,368.919L396.612,369.032L396.136,369.143L395.66,369.25L395.183,369.354L394.706,369.455L394.228,369.553L393.75,369.648L393.271,369.74L392.792,369.828L392.313,369.914L391.834,369.996L391.354,370.076L390.875,370.152L390.395,370.226L389.916,370.297L389.436,370.364L388.956,370.429L388.476,370.491L387.997,370.55L387.518,370.606L387.038,370.66L386.559,370.71L386.081,370.758L385.602,370.803L385.124,370.845L384.647,370.885L384.169,370.922L383.693,370.956L383.216,370.988L382.741,371.017L382.266,371.043L381.791,371.067L381.317,371.089L380.844,371.107L380.372,371.124L379.9,371.137L379.429,371.149L378.959,371.157L378.49,371.164L378.022,371.168L377.555,371.169L377.089,371.168L376.624,371.165L376.16,371.16L375.697,371.152L375.236,371.142L374.776,371.13L374.316,371.115L373.859,371.099L373.402,371.08L372.947,371.058L372.494,371.035L372.041,371.01L371.591,370.982L371.142,370.953L370.694,370.921L370.248,370.887L369.804,370.852L369.361,370.814L368.92,370.774L368.481,370.733L368.044,370.689L367.609,370.643L367.175,370.596L366.744,370.547L366.314,370.496L365.887,370.443L365.461,370.388L365.038,370.331L364.616,370.273L364.197,370.213L363.78,370.151L363.366,370.088L362.954,370.022L362.544,369.956L362.136,369.887L361.731,369.817L361.328,369.745L360.932,369.673L360.537,369.598L360.142,369.522L359.748,369.443L359.355,369.362L358.962,369.28L358.57,369.195L358.179,369.109L357.789,369.02L357.399,368.929L357.01,368.836L356.622,368.741L356.235,368.644L355.848,368.545L355.462,368.444L355.077,368.341L354.692,368.235L354.308,368.128L353.925,368.018L353.543,367.906L353.161,367.792L352.78,367.676L352.399,367.558L352.02,367.437L351.641,367.315L351.263,367.19L350.885,367.063L350.509,366.933L350.133,366.802L349.757,366.668L349.383,366.532L349.009,366.394L348.636,366.253L348.263,366.11L347.891,365.965L347.52,365.818L347.15,365.668L346.78,365.516L346.411,365.362L346.043,365.205L345.675,365.046L345.308,364.885L344.942,364.721L344.576,364.555L344.212,364.386L343.848,364.216L343.484,364.042L343.121,363.867L342.759,363.689L342.398,363.508L342.037,363.325L341.677,363.14L341.318,362.952L340.959,362.762L340.602,362.57L340.244,362.374L339.888,362.177L339.532,361.977L339.177,361.774L338.822,361.569L338.468,361.361L338.115,361.151L337.763,360.939L337.411,360.723L337.06,360.506L336.709,360.285L336.36,360.062L336.011,359.837L335.662,359.609L335.315,359.378L334.967,359.145L334.621,358.909L334.275,358.67L333.93,358.429L333.586,358.185L333.242,357.939L332.899,357.69L332.557,357.438L332.215,357.184L331.874,356.927L331.534,356.667L331.194,356.404L330.855,356.139L330.517,355.871L330.179,355.6L329.842,355.327L329.506,355.051L329.17,354.772L328.835,354.49L328.5,354.205L328.167,353.918L327.834,353.628L327.501,353.335L327.169,353.039L326.838,352.741L326.508,352.44L326.178,352.135L325.849,351.828L325.52,351.518L325.192,351.206L324.865,350.89L324.538,350.571L324.212,350.25L323.887,349.926L323.562,349.598L323.238,349.268L322.915,348.935L322.592,348.599L322.27,348.26L321.949,347.918L321.628,347.573L321.308,347.225L320.988,346.875L320.669,346.521L320.351,346.164L320.034,345.804L319.717,345.441L319.4,345.075L319.085,344.706L318.769,344.334L318.455,343.959L318.141,343.581L317.828,343.2L317.515,342.815L317.204,342.428L316.892,342.038L316.582,341.644L316.271,341.247L316.104,341.031L315.938,340.815L315.773,340.598L315.609,340.382L315.446,340.164L315.285,339.947L315.124,339.729L314.965,339.511L314.806,339.293L314.649,339.074L314.493,338.856L314.338,338.637L314.184,338.417L314.031,338.197L313.879,337.978L313.728,337.757L313.579,337.537L313.43,337.316L313.283,337.095L313.136,336.874L312.991,336.653L312.847,336.431L312.703,336.209L312.561,335.987L312.42,335.765L312.28,335.542L312.141,335.319L312.003,335.096L311.866,334.873L311.731,334.649L311.596,334.426L311.462,334.202L311.329,333.977L311.198,333.753L311.067,333.528L310.937,333.304L310.809,333.079L310.681,332.853L310.555,332.628L310.429,332.402L310.305,332.177L310.181,331.951L310.059,331.725L309.937,331.498L309.817,331.272L309.697,331.045L309.579,330.818L309.461,330.591L309.345,330.364L309.229,330.137L309.115,329.909L309.001,329.681L308.888,329.453L308.777,329.225L308.666,328.997L308.556,328.769L308.448,328.54L308.34,328.312L308.233,328.083L308.128,327.854L308.023,327.625L307.919,327.396L307.714,326.937L307.513,326.478L307.315,326.018L307.122,325.558L306.932,325.098L306.746,324.637L306.563,324.175L306.384,323.714L306.209,323.252L306.037,322.789L305.869,322.327L305.705,321.864L305.544,321.4L305.386,320.937L305.232,320.473L305.082,320.009L304.935,319.545L304.791,319.081L304.651,318.617L304.514,318.153L304.38,317.688L304.25,317.224L304.123,316.759L304,316.295L303.879,315.83L303.762,315.365L303.648,314.901L303.538,314.437L303.43,313.972L303.326,313.508L303.225,313.044L303.127,312.58L303.032,312.117L302.94,311.653L302.851,311.19L302.765,310.727L302.682,310.264L302.602,309.802L302.525,309.34L302.451,308.878L302.38,308.417L302.312,307.956L302.246,307.495L302.184,307.035L302.124,306.576L302.067,306.116L302.013,305.658L301.961,305.2L301.913,304.742L301.867,304.285L301.823,303.828L301.783,303.373L301.745,302.917L301.709,302.463L301.676,302.009L301.646,301.556L301.618,301.103L301.593,300.652L301.57,300.201L301.55,299.75L301.532,299.301L301.517,298.853L301.504,298.405L301.494,297.958L301.485,297.512L301.48,297.067L301.476,296.623L301.475,296.18L301.476,295.738L301.479,295.297L301.485,294.857L301.492,294.418L301.502,293.98L301.514,293.543L301.528,293.108L301.545,292.673L301.563,292.24L301.584,291.807L301.606,291.376L301.631,290.947L301.657,290.518L301.686,290.091L301.716,289.665L301.749,289.24L301.783,288.817L301.819,288.395L301.857,287.975L301.897,287.556L301.939,287.138L301.983,286.722L302.028,286.307L302.075,285.894L302.124,285.482L302.174,285.072L302.227,284.663L302.28,284.256L302.336,283.851L302.394,283.446L302.456,283.04L302.521,282.635L302.59,282.228L302.663,281.821L302.739,281.414L302.819,281.007L302.902,280.599L302.989,280.191L303.079,279.782L303.173,279.373L303.269,278.964L303.37,278.555L303.473,278.146L303.58,277.736L303.691,277.327L303.804,276.917L303.921,276.507L304.041,276.097L304.164,275.687L304.291,275.278L304.42,274.868L304.553,274.458L304.689,274.049L304.827,273.639L304.969,273.23L305.114,272.821L305.262,272.412L305.413,272.004L305.566,271.596L305.723,271.188L305.882,270.78L306.045,270.373L306.21,269.966L306.378,269.56L306.549,269.154L306.722,268.749L306.898,268.344L307.077,267.939L307.259,267.536L307.443,267.132L307.63,266.73L307.82,266.328L308.012,265.927L308.206,265.527L308.403,265.127L308.603,264.728L308.805,264.33L309.01,263.933L309.217,263.536L309.426,263.141L309.638,262.746L309.852,262.353L310.068,261.96L310.287,261.569L310.508,261.178L310.731,260.789L310.956,260.4L311.184,260.013L311.414,259.627L311.645,259.242L311.879,258.858L312.115,258.476L312.354,258.095L312.594,257.715L312.836,257.336L313.08,256.959L313.326,256.583L313.574,256.209L313.824,255.836L314.076,255.464L314.329,255.094L314.585,254.726L314.842,254.359L315.101,253.994L315.362,253.63L315.624,253.268L315.889,252.908L316.154,252.549L316.422,252.192L316.691,251.837L316.962,251.484L317.234,251.132L317.508,250.782L317.783,250.435L318.06,250.089L318.338,249.745L318.618,249.403L318.899,249.063L319.182,248.725L319.466,248.389L319.751,248.055L320.038,247.723L320.325,247.394L320.614,247.066L320.905,246.741L321.196,246.418L321.489,246.097L321.783,245.779L322.078,245.463L322.374,245.149L322.671,244.838L322.969,244.529L323.269,244.222L323.569,243.918L323.87,243.616L324.172,243.317L324.475,243.02L324.779,242.726L325.084,242.435L325.39,242.146L325.696,241.86L326.004,241.577L326.312,241.296L326.621,241.018L326.93,240.743L327.24,240.47L327.551,240.201L327.863,239.934L328.175,239.67L328.488,239.409L328.801,239.151L329.115,238.896L329.429,238.644L329.744,238.395L330.06,238.15L330.375,237.907L330.691,237.667L331.009,237.43L331.33,237.194L331.653,236.959L331.978,236.726L332.307,236.494L332.638,236.264L332.971,236.035L333.307,235.808L333.646,235.582L333.987,235.357L334.331,235.134L334.677,234.913L335.025,234.693L335.376,234.474L335.729,234.258L336.084,234.042L336.442,233.829L336.802,233.616L337.164,233.406L337.528,233.197L337.895,232.99L338.263,232.784L338.634,232.58L339.006,232.378L339.381,232.177L339.758,231.978L340.137,231.781L340.517,231.586L340.9,231.392L341.284,231.2L341.671,231.01L342.059,230.821L342.449,230.634L342.841,230.449L343.234,230.266L343.629,230.085L344.026,229.906L344.425,229.728L344.825,229.552L345.226,229.378L345.63,229.206L346.034,229.036L346.441,228.868L346.849,228.702L347.258,228.537L347.668,228.375L348.08,228.215L348.494,228.056L348.908,227.9L349.324,227.745L349.742,227.593L350.16,227.442L350.58,227.294L351.001,227.147L351.423,227.003L351.846,226.861L352.27,226.721L352.695,226.583L353.122,226.447L353.549,226.313L353.977,226.181L354.406,226.052L354.836,225.924L355.267,225.799L355.699,225.676L356.132,225.556L356.565,225.437L356.999,225.321L357.434,225.207L357.87,225.095L358.306,224.985L358.743,224.878L359.181,224.773L359.619,224.67L360.058,224.57L360.497,224.472L360.936,224.376L361.377,224.283L361.817,224.192L362.258,224.103L362.7,224.017L363.141,223.933L363.583,223.852L364.026,223.773L364.468,223.696L364.911,223.622L365.354,223.551L365.797,223.482L366.24,223.415L366.684,223.351L367.127,223.289L367.571,223.23L368.014,223.174L368.458,223.12L368.901,223.069L369.345,223.02L369.788,222.974L370.231,222.93L370.674,222.889L371.117,222.851L371.56,222.815L372.002,222.782L372.444,222.752L372.886,222.725L373.327,222.7L373.768,222.677L374.209,222.658L374.649,222.641L375.089,222.627L375.528,222.616L375.967,222.608L376.405,222.602L376.843,222.599L377.28,222.599L377.716,222.602ZM376.875,232.465L376.501,232.468L376.125,232.473L375.749,232.48L375.371,232.49L374.993,232.502L374.614,232.516L374.234,232.533L373.853,232.552L373.471,232.574L373.089,232.597L372.706,232.624L372.322,232.652L371.938,232.683L371.553,232.717L371.167,232.752L370.781,232.79L370.395,232.83L370.008,232.873L369.62,232.918L369.233,232.965L368.845,233.014L368.456,233.066L368.068,233.12L367.678,233.176L367.29,233.234L366.901,233.295L366.511,233.358L366.122,233.423L365.732,233.49L365.343,233.56L364.954,233.632L364.565,233.705L364.176,233.781L363.786,233.86L363.398,233.94L363.009,234.022L362.621,234.107L362.233,234.193L361.845,234.282L361.458,234.373L361.071,234.466L360.684,234.561L360.298,234.658L359.913,234.757L359.528,234.858L359.143,234.961L358.76,235.066L358.377,235.172L357.995,235.281L357.613,235.392L357.232,235.505L356.852,235.619L356.473,235.736L356.094,235.855L355.717,235.975L355.34,236.097L354.965,236.221L354.591,236.347L354.217,236.475L353.845,236.604L353.474,236.735L353.104,236.868L352.735,237.003L352.368,237.14L352.001,237.278L351.636,237.418L351.273,237.559L350.91,237.703L350.55,237.848L350.19,237.994L349.833,238.142L349.477,238.292L349.122,238.443L348.768,238.596L348.417,238.75L348.067,238.906L347.719,239.064L347.372,239.223L347.028,239.383L346.685,239.545L346.344,239.708L346.005,239.873L345.668,240.039L345.333,240.206L345,240.375L344.669,240.545L344.34,240.716L344.013,240.889L343.688,241.063L343.366,241.238L343.045,241.414L342.727,241.592L342.411,241.771L342.097,241.95L341.786,242.131L341.477,242.314L341.171,242.496L340.867,242.681L340.565,242.866L340.266,243.052L339.97,243.239L339.676,243.427L339.385,243.616L339.096,243.806L338.81,243.997L338.527,244.188L338.247,244.381L337.969,244.574L337.695,244.768L337.422,244.963L337.154,245.158L336.888,245.354L336.624,245.55L336.363,245.749L336.1,245.95L335.837,246.156L335.574,246.364L335.311,246.574L335.047,246.789L334.783,247.006L334.52,247.226L334.256,247.449L333.991,247.676L333.727,247.905L333.463,248.137L333.199,248.371L332.935,248.609L332.671,248.849L332.407,249.093L332.144,249.339L331.881,249.587L331.618,249.838L331.355,250.092L331.093,250.349L330.832,250.608L330.57,250.869L330.31,251.134L330.05,251.4L329.79,251.669L329.531,251.94L329.273,252.214L329.015,252.49L328.758,252.768L328.502,253.049L328.247,253.332L327.993,253.617L327.739,253.904L327.486,254.193L327.235,254.484L326.984,254.778L326.734,255.073L326.486,255.371L326.238,255.67L325.992,255.971L325.747,256.274L325.502,256.58L325.26,256.886L325.018,257.195L324.778,257.505L324.539,257.817L324.301,258.13L324.065,258.446L323.83,258.763L323.597,259.081L323.365,259.401L323.134,259.722L322.905,260.045L322.678,260.369L322.452,260.695L322.228,261.022L322.006,261.35L321.785,261.679L321.566,262.01L321.349,262.342L321.133,262.675L320.919,263.009L320.707,263.344L320.498,263.68L320.289,264.018L320.083,264.356L319.879,264.694L319.677,265.035L319.476,265.375L319.278,265.717L319.082,266.06L318.888,266.403L318.696,266.747L318.506,267.091L318.318,267.436L318.133,267.782L317.95,268.128L317.769,268.474L317.59,268.822L317.413,269.169L317.239,269.517L317.067,269.866L316.898,270.214L316.731,270.563L316.566,270.912L316.404,271.261L316.244,271.611L316.087,271.96L315.933,272.309L315.781,272.659L315.631,273.008L315.484,273.358L315.34,273.707L315.198,274.056L315.059,274.405L314.922,274.754L314.788,275.102L314.657,275.45L314.529,275.798L314.403,276.145L314.281,276.492L314.161,276.839L314.043,277.184L313.929,277.529L313.817,277.874L313.709,278.218L313.603,278.561L313.5,278.904L313.4,279.246L313.303,279.586L313.208,279.927L313.117,280.266L313.029,280.604L312.943,280.941L312.861,281.277L312.782,281.612L312.705,281.945L312.632,282.278L312.562,282.61L312.494,282.94L312.43,283.268L312.369,283.596L312.31,283.922L312.255,284.246L312.203,284.57L312.154,284.891L312.107,285.221L312.059,285.573L312.01,285.936L311.964,286.3L311.919,286.666L311.875,287.033L311.833,287.402L311.793,287.771L311.754,288.142L311.717,288.514L311.681,288.888L311.647,289.262L311.615,289.638L311.585,290.015L311.556,290.393L311.529,290.772L311.503,291.152L311.48,291.533L311.458,291.915L311.438,292.298L311.42,292.682L311.403,293.068L311.389,293.453L311.376,293.84L311.365,294.228L311.357,294.616L311.35,295.005L311.345,295.395L311.342,295.786L311.341,296.178L311.342,296.57L311.345,296.963L311.351,297.357L311.358,297.751L311.367,298.146L311.379,298.541L311.392,298.937L311.408,299.334L311.426,299.731L311.446,300.128L311.468,300.526L311.492,300.925L311.519,301.324L311.548,301.723L311.579,302.124L311.612,302.524L311.648,302.924L311.686,303.325L311.727,303.725L311.769,304.127L311.814,304.529L311.862,304.93L311.912,305.333L311.964,305.735L312.019,306.137L312.076,306.54L312.136,306.943L312.198,307.345L312.262,307.748L312.329,308.151L312.399,308.554L312.471,308.957L312.546,309.36L312.623,309.763L312.703,310.166L312.786,310.57L312.871,310.972L312.959,311.375L313.05,311.778L313.143,312.181L313.239,312.583L313.337,312.985L313.439,313.387L313.543,313.789L313.65,314.191L313.759,314.593L313.872,314.994L313.987,315.395L314.105,315.796L314.226,316.196L314.35,316.596L314.477,316.996L314.606,317.396L314.739,317.795L314.874,318.194L315.013,318.592L315.154,318.99L315.299,319.388L315.446,319.785L315.597,320.182L315.75,320.578L315.907,320.974L316.067,321.369L316.229,321.764L316.395,322.159L316.565,322.553L316.737,322.946L316.916,323.347L317.001,323.535L317.091,323.731L317.182,323.927L317.273,324.123L317.365,324.318L317.458,324.514L317.552,324.71L317.647,324.904L317.742,325.099L317.839,325.295L317.936,325.489L318.034,325.684L318.132,325.878L318.232,326.072L318.332,326.267L318.434,326.461L318.536,326.654L318.639,326.848L318.743,327.042L318.848,327.235L318.953,327.428L319.06,327.621L319.167,327.814L319.275,328.006L319.384,328.199L319.494,328.391L319.605,328.584L319.717,328.776L319.829,328.967L319.942,329.159L320.057,329.351L320.172,329.542L320.288,329.733L320.405,329.924L320.523,330.115L320.642,330.305L320.761,330.495L320.883,330.686L321.004,330.876L321.126,331.065L321.249,331.254L321.374,331.444L321.5,331.634L321.625,331.822L321.753,332.012L321.881,332.2L322.009,332.388L322.14,332.577L322.271,332.765L322.402,332.952L322.535,333.14L322.669,333.328L322.803,333.515L322.939,333.702L323.076,333.888L323.213,334.075L323.352,334.262L323.492,334.448L323.632,334.634L323.774,334.82L323.917,335.005L324.059,335.189L324.341,335.55L324.622,335.906L324.903,336.259L325.185,336.609L325.467,336.955L325.749,337.299L326.032,337.639L326.314,337.976L326.597,338.311L326.88,338.641L327.164,338.969L327.448,339.294L327.732,339.616L328.016,339.935L328.301,340.251L328.585,340.563L328.87,340.873L329.155,341.18L329.441,341.483L329.727,341.784L330.013,342.082L330.299,342.377L330.586,342.669L330.873,342.958L331.159,343.244L331.447,343.527L331.734,343.808L332.022,344.085L332.31,344.36L332.599,344.632L332.887,344.901L333.176,345.168L333.465,345.432L333.755,345.692L334.045,345.951L334.334,346.206L334.625,346.459L334.915,346.709L335.206,346.957L335.497,347.201L335.789,347.444L336.081,347.683L336.373,347.92L336.665,348.154L336.958,348.386L337.251,348.616L337.544,348.842L337.838,349.066L338.132,349.288L338.426,349.507L338.721,349.724L339.016,349.938L339.311,350.15L339.607,350.359L339.903,350.566L340.199,350.771L340.496,350.973L340.794,351.173L341.091,351.37L341.389,351.565L341.688,351.758L341.987,351.949L342.286,352.137L342.586,352.323L342.886,352.507L343.187,352.688L343.488,352.867L343.789,353.044L344.091,353.219L344.394,353.392L344.697,353.562L345,353.73L345.304,353.896L345.609,354.06L345.914,354.222L346.22,354.381L346.526,354.539L346.833,354.695L347.14,354.848L347.447,354.999L347.756,355.149L348.065,355.296L348.375,355.441L348.685,355.585L348.996,355.726L349.307,355.865L349.62,356.002L349.932,356.137L350.246,356.271L350.56,356.402L350.874,356.532L351.19,356.659L351.506,356.785L351.823,356.909L352.14,357.03L352.459,357.15L352.778,357.268L353.098,357.384L353.418,357.499L353.74,357.611L354.061,357.721L354.385,357.83L354.708,357.937L355.033,358.042L355.358,358.145L355.684,358.247L356.011,358.347L356.338,358.444L356.667,358.541L356.997,358.635L357.327,358.728L357.658,358.818L357.99,358.907L358.323,358.994L358.657,359.08L358.992,359.164L359.327,359.246L359.664,359.326L360.002,359.405L360.34,359.482L360.679,359.557L361.019,359.63L361.36,359.702L361.702,359.772L362.046,359.841L362.39,359.907L362.735,359.972L363.082,360.036L363.436,360.099L363.794,360.161L364.155,360.222L364.518,360.281L364.883,360.339L365.251,360.395L365.621,360.45L365.993,360.503L366.367,360.555L366.744,360.605L367.123,360.654L367.504,360.701L367.887,360.747L368.271,360.791L368.658,360.833L369.046,360.874L369.437,360.913L369.829,360.95L370.223,360.985L370.618,361.019L371.015,361.051L371.414,361.081L371.814,361.109L372.215,361.136L372.618,361.16L373.023,361.183L373.428,361.204L373.836,361.223L374.244,361.24L374.653,361.255L375.063,361.268L375.475,361.279L375.887,361.288L376.301,361.295L376.715,361.299L377.131,361.302L377.547,361.303L377.964,361.301L378.382,361.298L378.8,361.292L379.219,361.284L379.639,361.274L380.059,361.262L380.479,361.248L380.901,361.231L381.322,361.212L381.744,361.191L382.167,361.167L382.589,361.142L383.012,361.114L383.435,361.083L383.858,361.05L384.281,361.015L384.704,360.978L385.127,360.938L385.551,360.896L385.974,360.851L386.396,360.804L386.82,360.754L387.242,360.702L387.664,360.648L388.086,360.591L388.508,360.531L388.929,360.469L389.35,360.405L389.77,360.338L390.19,360.268L390.609,360.196L391.028,360.121L391.445,360.044L391.862,359.964L392.279,359.881L392.694,359.796L393.109,359.708L393.523,359.618L393.936,359.525L394.348,359.429L394.759,359.331L395.169,359.23L395.577,359.126L395.985,359.02L396.392,358.911L396.797,358.799L397.201,358.684L397.604,358.567L398.005,358.447L398.405,358.324L398.804,358.199L399.201,358.071L399.597,357.94L399.999,357.803L400.188,357.738L400.384,357.669L400.579,357.6L400.775,357.53L400.97,357.459L401.164,357.388L401.358,357.315L401.552,357.243L401.745,357.169L401.938,357.095L402.13,357.02L402.322,356.944L402.514,356.868L402.705,356.791L402.896,356.713L403.086,356.634L403.275,356.555L403.464,356.476L403.654,356.395L403.842,356.313L404.03,356.231L404.217,356.149L404.404,356.065L404.591,355.981L404.776,355.896L404.962,355.81L405.147,355.724L405.332,355.637L405.515,355.549L405.699,355.461L405.881,355.371L406.064,355.281L406.246,355.191L406.427,355.099L406.608,355.007L406.788,354.915L406.969,354.821L407.148,354.726L407.326,354.632L407.505,354.536L407.682,354.439L407.859,354.342L408.036,354.244L408.212,354.145L408.387,354.046L408.563,353.945L408.737,353.844L408.91,353.743L409.084,353.64L409.257,353.537L409.429,353.433L409.601,353.329L409.772,353.223L409.942,353.117L410.112,353.01L410.28,352.903L410.449,352.794L410.618,352.685L410.785,352.575L410.952,352.464L411.118,352.353L411.284,352.24L411.449,352.128L411.614,352.014L411.778,351.899L411.941,351.784L412.104,351.668L412.266,351.551L412.427,351.434L412.588,351.315L412.749,351.196L412.909,351.076L413.068,350.955L413.228,350.832L413.502,350.62L413.777,350.405L414.052,350.189L414.326,349.972L414.599,349.753L414.872,349.532L415.145,349.31L415.416,349.087L415.687,348.862L415.958,348.636L416.228,348.409L416.498,348.18L416.766,347.95L417.034,347.718L417.301,347.486L417.567,347.252L417.833,347.016L418.098,346.779L418.362,346.541L418.625,346.302L418.887,346.061L419.149,345.82L419.409,345.576L419.669,345.332L419.927,345.087L420.184,344.84L420.441,344.592L420.697,344.343L420.951,344.093L421.205,343.842L421.457,343.589L421.708,343.336L421.958,343.081L422.207,342.825L422.455,342.569L422.702,342.31L422.947,342.052L423.191,341.791L423.435,341.53L423.676,341.268L423.916,341.005L424.155,340.741L424.393,340.476L424.629,340.21L424.864,339.942L425.098,339.674L425.329,339.406L425.56,339.136L425.79,338.865L426.017,338.593L426.243,338.321L426.468,338.047L426.692,337.773L426.913,337.498L427.133,337.221L427.352,336.945L427.568,336.667L427.784,336.389L427.998,336.109L428.209,335.83L428.419,335.549L428.628,335.268L428.835,334.985L429.04,334.703L429.244,334.419L429.445,334.134L429.645,333.85L429.843,333.564L430.039,333.278L430.233,332.991L430.426,332.703L430.616,332.415L430.805,332.127L430.992,331.838L431.176,331.548L431.36,331.257L431.541,330.966L431.719,330.675L431.896,330.383L432.072,330.09L432.244,329.798L432.415,329.504L432.584,329.21L432.751,328.916L432.916,328.621L433.078,328.326L433.238,328.031L433.397,327.735L433.553,327.438L433.707,327.142L433.859,326.845L434.009,326.548L434.157,326.249L434.302,325.951L434.445,325.654L434.586,325.355L434.724,325.056L434.861,324.757L434.995,324.457L435.127,324.157L435.256,323.858L435.383,323.558L435.508,323.258L435.631,322.958L435.751,322.656L435.869,322.355L435.985,322.055L436.098,321.754L436.209,321.452L436.317,321.151L436.423,320.849L436.527,320.547L436.628,320.246L436.727,319.944L436.823,319.642L436.917,319.34L437.008,319.038L437.097,318.736L437.184,318.433L437.268,318.131L437.35,317.829L437.429,317.526L437.505,317.224L437.58,316.921L437.651,316.619L437.72,316.316L437.787,316.013L437.852,315.704L437.92,315.371L437.989,315.027L438.056,314.679L438.123,314.327L438.188,313.972L438.252,313.612L438.315,313.249L438.377,312.883L438.437,312.513L438.496,312.14L438.554,311.763L438.611,311.383L438.666,311.001L438.719,310.616L438.772,310.226L438.823,309.834L438.872,309.441L438.92,309.043L438.967,308.644L439.012,308.241L439.055,307.836L439.097,307.429L439.137,307.019L439.175,306.607L439.212,306.193L439.248,305.777L439.281,305.359L439.313,304.938L439.343,304.516L439.372,304.092L439.398,303.665L439.423,303.238L439.446,302.809L439.467,302.378L439.487,301.946L439.504,301.512L439.52,301.076L439.534,300.64L439.546,300.202L439.556,299.764L439.563,299.324L439.569,298.882L439.574,298.44L439.576,297.998L439.576,297.555L439.574,297.11L439.57,296.665L439.563,296.219L439.555,295.773L439.545,295.327L439.533,294.88L439.518,294.432L439.502,293.985L439.483,293.538L439.462,293.089L439.439,292.641L439.413,292.194L439.386,291.746L439.356,291.298L439.324,290.851L439.29,290.403L439.254,289.957L439.215,289.511L439.174,289.064L439.131,288.619L439.085,288.175L439.037,287.731L438.987,287.287L438.935,286.845L438.88,286.404L438.823,285.964L438.764,285.524L438.702,285.086L438.638,284.649L438.571,284.213L438.502,283.778L438.431,283.346L438.357,282.914L438.281,282.483L438.203,282.055L438.122,281.629L438.039,281.204L437.953,280.781L437.865,280.359L437.774,279.94L437.681,279.522L437.586,279.107L437.489,278.694L437.389,278.284L437.286,277.875L437.181,277.468L437.074,277.065L436.964,276.664L436.852,276.265L436.738,275.868L436.621,275.475L436.502,275.085L436.377,274.688L436.319,274.504L436.256,274.312L436.194,274.121L436.13,273.93L436.066,273.74L436.001,273.551L435.937,273.363L435.871,273.175L435.804,272.988L435.738,272.803L435.67,272.618L435.602,272.434L435.533,272.25L435.464,272.067L435.395,271.886L435.324,271.704L435.253,271.524L435.182,271.345L435.11,271.166L435.037,270.988L434.964,270.812L434.891,270.637L434.817,270.463L434.742,270.288L434.666,270.114L434.59,269.942L434.514,269.771L434.438,269.602L434.36,269.433L434.282,269.263L434.203,269.096L434.124,268.929L434.045,268.764L433.965,268.6L433.884,268.435L433.803,268.273L433.722,268.112L433.639,267.95L433.557,267.791L433.473,267.632L433.39,267.475L433.306,267.318L433.221,267.162L433.136,267.008L433.051,266.855L432.964,266.702L432.878,266.551L432.79,266.4L432.703,266.25L432.615,266.102L432.526,265.954L432.438,265.809L432.348,265.664L432.258,265.519L432.168,265.377L432.077,265.234L431.985,265.093L431.893,264.953L431.802,264.816L431.707,264.674L431.48,264.341L431.249,264.003L431.015,263.666L430.779,263.329L430.541,262.991L430.3,262.653L430.057,262.314L429.811,261.975L429.563,261.636L429.312,261.297L429.059,260.958L428.804,260.619L428.546,260.28L428.286,259.941L428.024,259.602L427.759,259.264L427.491,258.926L427.222,258.588L426.95,258.25L426.675,257.912L426.398,257.576L426.119,257.24L425.837,256.904L425.552,256.568L425.266,256.234L424.977,255.9L424.685,255.566L424.392,255.234L424.095,254.902L423.796,254.571L423.495,254.242L423.192,253.912L422.886,253.584L422.578,253.257L422.267,252.931L421.954,252.606L421.638,252.282L421.32,251.96L421,251.639L420.677,251.318L420.352,251L420.024,250.682L419.694,250.367L419.362,250.052L419.027,249.739L418.69,249.428L418.35,249.118L418.008,248.809L417.664,248.503L417.317,248.198L416.968,247.895L416.616,247.594L416.262,247.294L415.906,246.996L415.547,246.701L415.185,246.406L414.821,246.115L414.456,245.825L414.087,245.537L413.716,245.252L413.343,244.968L412.96,244.682L412.778,244.547L412.588,244.408L412.398,244.269L412.207,244.13L412.016,243.993L411.824,243.856L411.632,243.719L411.439,243.584L411.245,243.448L411.051,243.314L410.856,243.18L410.66,243.046L410.464,242.913L410.267,242.781L410.07,242.65L409.872,242.519L409.673,242.388L409.474,242.258L409.274,242.129L409.074,242.001L408.872,241.873L408.671,241.746L408.468,241.619L408.265,241.494L408.061,241.368L407.857,241.244L407.653,241.12L407.447,240.997L407.241,240.874L407.035,240.753L406.827,240.632L406.619,240.511L406.41,240.391L406.201,240.272L405.992,240.154L405.781,240.036L405.569,239.919L405.358,239.803L405.146,239.688L404.933,239.573L404.718,239.459L404.504,239.345L404.29,239.233L404.074,239.121L403.857,239.01L403.64,238.9L403.423,238.791L403.205,238.682L402.986,238.574L402.767,238.467L402.546,238.36L402.325,238.254L402.104,238.15L401.882,238.046L401.66,237.942L401.436,237.84L401.212,237.738L400.987,237.637L400.761,237.537L400.535,237.438L400.308,237.339L400.081,237.242L399.853,237.145L399.624,237.049L399.395,236.954L399.165,236.86L398.934,236.766L398.702,236.673L398.47,236.582L398.237,236.491L398.003,236.401L397.769,236.311L397.534,236.223L397.299,236.136L397.062,236.049L396.825,235.963L396.587,235.879L396.349,235.795L396.109,235.712L395.869,235.63L395.629,235.549L395.388,235.468L395.145,235.389L394.903,235.31L394.659,235.233L394.415,235.156L394.17,235.081L393.924,235.006L393.677,234.932L393.431,234.859L393.183,234.787L392.934,234.716L392.684,234.646L392.434,234.577L392.183,234.509L391.932,234.442L391.679,234.376L391.426,234.311L391.172,234.247L390.917,234.184L390.662,234.122L390.405,234.061L390.148,234L389.891,233.941L389.632,233.883L389.373,233.826L389.112,233.77L388.852,233.715L388.59,233.661L388.327,233.608L388.064,233.557L387.8,233.506L387.535,233.456L387.269,233.407L387.002,233.36L386.735,233.313L386.466,233.268L386.198,233.223L385.928,233.18L385.657,233.138L385.385,233.097L385.113,233.057L384.84,233.018L384.566,232.98L384.291,232.944L384.015,232.908L383.739,232.874L383.461,232.841L383.183,232.809L382.903,232.778L382.623,232.748L382.349,232.72L381.988,232.686L381.632,232.654L381.274,232.625L380.915,232.598L380.554,232.574L380.192,232.552L379.829,232.533L379.464,232.516L379.098,232.502L378.731,232.49L378.362,232.48L377.992,232.473L377.621,232.468L377.248,232.465L376.875,232.465Z" style="fill:rgb(35,31,32);"/>
    </g>
    <g transform="matrix(0.323663,0,0,0.323663,286.872,249.231)">
        <path d="M343.213,267.302C339.665,262.612 335.156,258.704 329.805,255.578C325.776,253.173 321.267,251.249 316.277,249.806C325.355,245.356 332.09,239.464 336.599,232.189C341.048,224.914 343.273,217.158 343.273,208.86C343.273,200.022 340.748,191.544 335.697,183.428C330.646,175.311 323.672,169.298 314.774,165.39C308.04,162.384 299.622,160.58 289.521,159.859L289.521,135.808L264.148,135.808L264.148,159.498L251.341,159.498L251.341,135.808L226.029,135.808L226.029,159.498L215.266,159.498L215.266,159.438L186.947,159.438L186.947,182.165L206.909,182.165L206.909,329.712L186.947,329.712L186.947,352.439L206.909,352.439L206.909,352.5L226.029,352.5L226.029,376.249L251.341,376.249L251.341,352.5L264.148,352.5L264.148,376.249L289.521,376.249L289.521,352.319C297.938,351.898 305.334,350.876 311.647,349.253C320.065,347.148 327.159,343.962 332.751,339.753C338.343,335.544 343.092,329.532 346.88,321.776C350.728,314.02 352.653,305.602 352.653,296.583C352.653,285.34 349.466,275.6 343.213,267.302ZM232.462,182.285L271.002,182.285C284.891,182.285 294.692,183.187 300.344,184.991C306.055,186.795 310.445,190.101 313.511,194.971C316.577,199.842 318.141,205.493 318.141,211.927C318.141,218.661 316.517,224.252 313.21,228.762C309.904,233.211 305.033,236.458 298.54,238.382C293.61,239.885 285.493,240.607 274.189,240.607L232.462,240.607L232.462,182.285L232.462,182.285ZM322.349,312.817C319.824,317.507 316.577,321.114 312.609,323.519C308.641,325.985 303.771,327.728 297.879,328.81C294.512,329.412 288.739,329.712 280.502,329.712L232.462,329.712L232.462,263.394L277.075,263.394C289.341,263.394 298.78,264.476 305.334,266.581C309.242,267.903 312.609,269.767 315.555,272.172C317.479,273.796 319.163,275.66 320.666,277.824C324.333,283.115 326.197,289.368 326.197,296.583C326.197,302.716 324.875,308.127 322.349,312.817Z" style="fill:rgb(204,144,58);fill-rule:nonzero;"/>
    </g>
    <g transform="matrix(0.323663,0,0,0.323663,286.872,249.231)">
        <path d="M337.562,267.302C334.014,262.612 329.505,258.704 324.154,255.578C320.125,253.173 315.616,251.249 310.626,249.806C319.704,245.356 326.439,239.464 330.948,232.189C335.397,224.914 337.622,217.158 337.622,208.86C337.622,200.022 335.096,191.544 330.046,183.428C324.995,175.311 318.021,169.298 309.123,165.39C302.389,162.384 293.971,160.58 283.87,159.859L283.87,135.808L258.497,135.808L258.497,159.498L245.69,159.498L245.69,135.808L220.378,135.808L220.378,159.498L209.615,159.498L209.615,159.438L181.296,159.438L181.296,182.165L201.258,182.165L201.258,329.712L181.296,329.712L181.296,352.439L201.258,352.439L201.258,352.5L220.378,352.5L220.378,376.249L245.69,376.249L245.69,352.5L258.497,352.5L258.497,376.249L283.87,376.249L283.87,352.319C292.287,351.898 299.683,350.876 305.996,349.253C314.414,347.148 321.508,343.962 327.1,339.753C332.692,335.544 337.441,329.532 341.229,321.776C345.077,314.02 347.002,305.602 347.002,296.583C347.002,285.34 343.815,275.6 337.562,267.302ZM226.811,182.285L265.351,182.285C279.24,182.285 289.041,183.187 294.693,184.991C300.404,186.795 304.794,190.101 307.86,194.971C310.926,199.842 312.49,205.493 312.49,211.927C312.49,218.661 310.866,224.252 307.559,228.762C304.253,233.211 299.382,236.458 292.889,238.382C287.959,239.885 279.842,240.607 268.538,240.607L226.811,240.607L226.811,182.285ZM316.698,312.817C314.173,317.507 310.926,321.114 306.958,323.519C302.99,325.985 298.12,327.728 292.228,328.81C288.861,329.412 283.088,329.712 274.851,329.712L226.811,329.712L226.811,263.394L271.424,263.394C283.689,263.394 293.129,264.476 299.683,266.581C303.591,267.903 306.958,269.767 309.904,272.172C311.828,273.796 313.512,275.66 315.015,277.824C318.682,283.115 320.546,289.368 320.546,296.583C320.546,302.716 319.224,308.127 316.698,312.817Z" style="fill:rgb(252,212,98);fill-rule:nonzero;"/>
    </g>
    <g transform="matrix(1,0,0,1,-5.625,34.7656)">
        <path d="M353.236,269.093C364.314,269.425 378.646,269.603 386.471,270.088C393.449,270.52 398.571,276.561 398.811,280.745C399.051,284.93 398.498,292.285 387.911,295.193C381.824,296.866 370.316,296.08 362.345,296.24" style="fill:none;stroke:rgb(35,31,32);stroke-width:8px;"/>
    </g>
    <g transform="matrix(1,0,0,1,-5.625,34.7656)">
        <path d="M355.108,325.756C367.166,325.491 383.346,327.203 391.281,324.96C396.754,323.414 401.431,317.536 401.954,313.14C402.843,305.682 399.683,297.779 385.247,295.792" style="fill:none;stroke:rgb(35,31,32);stroke-width:8px;"/>
    </g>
    <g transform="matrix(1,0,0,1,-5.625,34.7656)">
        <path d="M362.689,269.762L361.823,324.771" style="fill:none;stroke:rgb(35,31,32);stroke-width:8px;"/>
    </g>
    <g transform="matrix(1,0,0,1,-5.625,34.7656)">
        <path d="M368.551,258.637L368.551,269.511" style="fill:none;stroke:rgb(35,31,32);stroke-width:8px;"/>
    </g>
    <g transform="matrix(1,0,0,1,-5.625,103.766)">
        <path d="M368.551,258.637L368.551,269.511" style="fill:none;stroke:rgb(35,31,32);stroke-width:8px;"/>
    </g>
    <g transform="matrix(1,0,0,1,7.375,34.7656)">
        <path d="M368.551,258.637L368.551,269.511" style="fill:none;stroke:rgb(35,31,32);stroke-width:8px;"/>
    </g>
    <g transform="matrix(1,0,0,1,7.375,103.766)">
        <path d="M368.551,258.637L368.551,269.511" style="fill:none;stroke:rgb(35,31,32);stroke-width:8px;"/>
    </g>
</svg>
